<?xml version="1.0" encoding="utf-8"?>
<!DOCTYPE svg PUBLIC "-//W3C//DTD SVG 1.1//EN" "http://www.w3.org/Graphics/SVG/1.1/DTD/svg11.dtd">
<svg version="1.1" id="Layer_1" xmlns="http://www.w3.org/2000/svg" xmlns:xlink="http://www.w3.org/1999/xlink" x="0px" y="0px"
	 width="1024px" height="1024px" viewBox="0 0 1024 1024" enable-background="new 0 0 1024 1024" xml:space="preserve">
<title></title>
<g id="icomoon-ignore">
</g>
<path fill="#0BB99E" d="M512,0C230.4,0,0,230.4,0,512s230.4,512,512,512s512-230.4,512-512S793.6,0,512,0L512,0z M737.3,458.2
	L517.1,678.4c-15.4,15.4-35.8,23-56.3,23s-41-7.7-56.3-23L281.6,555.5c-30.7-30.7-30.7-79.4,0-110.1s79.4-30.7,110.1,0l66.6,66.6
	l163.8-163.8c30.7-30.7,79.4-30.7,110.1,0C768,378.9,768,427.5,737.3,458.2L737.3,458.2z"/>
</svg>
