<?xml version="1.0" encoding="utf-8"?>
<!-- Generator: Adobe Illustrator 22.0.1, SVG Export Plug-In . SVG Version: 6.00 Build 0)  -->
<svg version="1.1" id="Layer_1" xmlns="http://www.w3.org/2000/svg" xmlns:xlink="http://www.w3.org/1999/xlink" x="0px" y="0px"
	 viewBox="0 0 214 73.1" style="enable-background:new 0 0 214 73.1;" xml:space="preserve">
<style type="text/css">
	.st0{fill:#FFFFFF;}
</style>
<g>
	<path class="st0" d="M43.1,64.4c0.1-1.1,0.2-2.1,0.2-3.2c0,0,0.1,0,0.1,0c0.1,0.5,0.4,1.1,0.3,1.6c-0.1,0.5,0.1,1,0,1.5
		c-0.1,0.3,0.1,0.6,0.2,0.9c0.1,0.2,0.2,0.5,0.3,0.8c0.3,0.1,0.6,0.2,1,0.3c0-0.2,0-0.4,0-0.6c0-0.1,0-0.3,0.1-0.3
		c0.4-0.2,0.6-0.6,0.4-1.1c0.2,0.1,0.2,0.2,0.4,0.2c-0.1-0.3-0.1-0.5-0.2-0.7c-0.1-0.2-0.1-0.3,0-0.4c0.1,0,0.1-0.2,0.1-0.2
		c-0.3-0.6,0-1.2,0.2-1.7c0-0.1,0.1-0.3,0.1-0.4c0-0.5,0.1-1,0.6-1.2c0.1-0.9-0.2-1.8,0.1-2.7c0.2-0.6,0-1.3,0-2
		c0-1.1-0.1-2.2-0.1-3.3c0-0.3,0-0.6,0-1c0.6,0.5,1.1,0.8,1.6,1.3c0.4,0.5,0.8,0.9,1.3,1.3c0.3,0.3,0.6,0.6,0.9,0.9
		c0.1,0.1,0.2,0.3,0.4,0.4c1.5,0.9,2.5,2.2,3.7,3.4c1.8,1.9,3.6,3.9,5.4,5.9c0.1,0.1,0.2,0.3,0.3,0.4c-12.1,11-33.6,12.5-47.9-0.6
		c0.4-0.5,0.9-1.1,1.4-1.6c0.7-0.7,1.5-1.4,2.2-2.2c1.2-1.1,2.3-2.3,3.5-3.5c1.4-1.4,2.5-2.9,4.1-4.1c0.2-0.2,0.3-0.4,0.5-0.7
		c-0.3-0.4-0.5-0.9-0.8-1.3c-0.1-0.2-0.2-0.4-0.4-0.6c-0.2-0.2-0.5-0.4-0.7-0.6c-0.2-0.1-0.4-0.2-0.6-0.3c-0.7-0.4-1.2-0.4-1.8,0.1
		c-1.8,1.4-3.5,2.9-5.1,4.6c-1.8,1.9-3.6,3.9-5.3,5.8c-0.1,0.2-0.3,0.3-0.5,0.5c-2.4-2.8-4.3-6-5.7-9.4c-2.6-6.4-3.4-13-2.3-19.8
		C1.4,25,3.6,19.7,7.1,14.9C7.3,15,7.5,15,7.6,15.1c0.5,0.5,1.1,0.9,1.5,1.5c0.5,0.6,1.2,0.9,1.7,1.5c0.2,0.2,0.5,0.3,0.4,0.7
		c0,0.1,0.2,0.3,0.3,0.4c0.1,0.2,0.2,0.4,0.3,0.6l0,0c0,0-0.1,0-0.2,0.1c2,2,4.1,3.9,6.3,5.9c-0.3,0.1-0.5,0.1-0.7,0.1
		c-1.7,0.1-3.3,0.2-5,0.3c-0.3,0-0.6,0.1-0.8,0.1c-0.5,0.1-1,0.1-1.4,0.2c-0.3,0-0.7,0-0.8,0.4c0,0,0,0-0.1,0
		c-0.6,0-0.9,0.7-1.5,0.7c-0.2,0.3,0,0.7-0.5,0.9c0,0-0.1,0.1-0.1,0.2c0,0.4-0.1,0.9-0.1,1.3c0.2,0.1,0.5,0.3,0.9,0.5
		c-0.2,0.1-0.4,0.2-0.5,0.3c0.1,0.1,0.2,0.1,0.2,0.1c1.2,0.3,2.4,0.6,3.6,0.5c1.2-0.1,2.3,0.1,3.5,0.1c0.3,0,0.6,0,0.9,0
		c0.3,0,0.7-0.1,1,0.2c0.1,0.1,0.3,0.1,0.5,0.1c1.8-0.1,3.7-0.2,5.5-0.2c1.2-0.1,2.3-0.1,3.5-0.2c1.1-0.1,2.2-0.1,3.3-0.2
		c0.6,0,0.8-0.3,0.8-1c0-0.3,0.2-0.6,0.3-0.9c0-0.1,0.1-0.2,0.2-0.3c-0.3-0.1-0.5-0.2-0.3-0.6c0.1-0.2,0.1-0.4,0.2-0.6
		c-0.1,0-0.2-0.1-0.4-0.1c0.3-0.4,0.3-0.8,0-1.2c-0.1-0.1-0.1-0.3-0.1-0.5c-0.2-1.8-0.5-3.6-0.7-5.4c-0.1-1.2-0.2-2.5-0.3-3.7
		c-0.1-1.7-0.3-3.5-0.4-5.2c-0.1-0.5-0.2-1-0.3-1.6c-0.2-0.1-0.4-0.1-0.6-0.2c-0.1,0.2-0.2,0.3-0.2,0.4c-0.1-0.2-0.3-0.5-0.4-0.7
		c0,0-0.1,0-0.1-0.1c-0.1-0.5-0.5-0.7-0.8-1c-0.2-0.3-0.5-0.3-0.8-0.3c-0.3,0-0.7,0.1-1,0.1c-0.1,0-0.1,0-0.2,0
		c-0.4-0.1-0.8-0.2-1.2-0.4c0,0.4,0,0.7,0,1c0,0.6-0.1,1.2-0.1,1.8c0,1,0.1,2.1,0.2,3.1c0.1,1,0.2,2,0.3,3c0.2,1.7,0.3,3.3,0.4,5
		c0,0.1,0,0.2,0,0.5c-0.4-0.3-0.7-0.5-0.9-0.8c-0.9-0.9-1.8-1.8-2.7-2.7c-0.7-0.7-1.4-1.4-2.2-2.1c-0.2-0.2-0.5-0.4-0.7-0.5
		c-0.6-0.8-1.5-1.7-2-1.8c0.6,0.6,1.2,1.2,1.9,1.8c0,0,0.1,0,0.2,0c0,0.1,0.1,0.3,0.1,0.4l0,0c-0.1,0-0.2,0-0.2,0
		c-0.6-0.6-1.2-1.2-1.9-1.8c-0.5-0.5-1.1-1-1.6-1.5c-0.9-0.8-1.7-1.7-2.7-2.6c0.3-0.3,0.6-0.7,0.9-0.9c3.8-3.5,8.1-6.1,13-7.8
		c3-1.1,6.2-1.7,9.4-1.9c8.2-0.5,15.7,1.4,22.6,5.9c2.1,1.3,4,2.9,5.7,4.6c0.1,0.1,0.2,0.2,0.4,0.4c-0.5,0.6-1.2,0.9-1.8,1.3
		c-0.6,0.4-1.2,0.8-1.7,1.2c-2,1.4-4,2.8-5.9,4.2c-1.1,0.8-2.1,1.7-3.2,2.6c-0.9,0.8-1.8,1.6-2.8,2.4c-0.2,0.2-0.4,0.3-0.7,0.4
		c0-0.2-0.1-0.4-0.1-0.5c-0.1-1-0.2-1.9-0.3-2.9c0-0.8,0-1.5,0.1-2.3c0.1-1.2,0.1-2.4-0.2-3.5c-0.1-0.6-0.1-1.2-0.2-1.8
		c-0.1-0.8-0.1-1.5-0.2-2.3c0-0.2,0-0.5-0.3-0.5c0-0.7,0-1.4-0.1-2.1c-0.1,0-0.1,0-0.2,0c0.1,0.7,0.2,1.4,0.3,2.1
		c0,0.2,0,0.5,0.1,0.7c0,0-0.1,0-0.1,0c0-0.1-0.1-0.3-0.1-0.4c0,0-0.1,0-0.1,0c0,0.4,0.1,0.7,0.1,1.1c0,0.4,0.1,0.7,0.2,1.2
		c-0.7-0.5-0.4-1.1-0.6-1.7c0,0.3,0,0.6,0,0.9c0,0-0.1,0-0.1,0c-0.1-0.8-0.2-1.6-0.2-2.5c0,0-0.1,0-0.1,0c0,0.3,0,0.7,0,1
		c0,0.3,0.2,0.7-0.3,1.1c-0.1-1.2,0.2-2.3-0.4-3.4c-0.2,1-0.3,2-0.5,3.2c0-1.3,0-2.5,0-3.7c-0.2,0.3-0.1,0.7-0.4,0.7
		c-0.1,0-0.1,0.2-0.1,0.4c-0.1,1.5-0.3,2.9-0.4,4.4c0,0.4-0.2,0.8-0.3,1.2c-0.2,1-0.3,2-0.5,3c-0.1,0.5-0.2,1-0.3,1.6
		c-0.2,1-0.1,2,0,3.1c0.1,0.5,0,1,0,1.5c0.1,2,0.2,3.9,0.3,5.9c0,0.5,0.1,1,0.2,1.5c0,0.1,0,0.2,0.1,0.3c0.3,0.4,0.4,0.8,0.3,1.2
		c0.8,0.7,1.6,0.6,2.5,0.7c2.6,0.2,5.2,0.3,7.7,0.5c4.3,0.3,8.5,0.5,12.8,0.3c0.9,0,1.8-0.2,2.6-0.3c0.8-0.1,1.6-0.1,2.4-0.2
		c0.5-0.1,1-0.2,1.6-0.4c-0.1,0-0.2-0.1-0.5-0.2c0.6-0.1,1.1-0.1,1.6-0.2c0.6,4.1,0.4,8.2-0.4,12.2c-1.3,6.4-4.1,12-8.5,16.9
		c-1.5-1.5-3-3-4.3-4.6c-1.3-1.6-2.9-3-4.3-4.5c-1.4-1.5-2.9-3-4.5-4.5c0.5,0,0.9-0.1,1.4-0.1c1.9-0.1,3.8-0.2,5.8-0.3
		c0.3,0,0.6-0.1,0.8-0.2c0.9-0.3,1.8-0.4,2.6-0.6c1.2-0.3,2.5-0.6,3.3-1.7C65,44,65,44,64.7,43.7c-0.1-0.1-0.2-0.1-0.3-0.2
		c0.1-0.2,0.2-0.3,0.4-0.5c-0.2-0.1-0.4-0.2-0.4-0.3c0-0.3-0.1-0.6-0.1-0.9c-0.5-0.3-0.9-0.2-1.4-0.1c-0.9,0.4-1.9,0.5-2.9,0.6
		c-1.8,0.1-3.6,0.3-5.4,0.3c-2.2,0.1-4.4,0.1-6.6,0.2c-0.3,0-0.7,0-1,0.1c-0.5,0.1-0.9,0.1-1.3-0.2c-0.3-0.2-0.6-0.3-0.8,0.1
		c-0.1,0.1-0.2,0.2-0.3,0.1c-0.5-0.1-0.6,0.3-0.9,0.5c-0.2,0.1-0.3,0.3-0.5,0.6c-0.1-0.2-0.2-0.2-0.2-0.4c-0.2,0.1-0.4,0.2-0.5,0.2
		c0,0.1-0.1,0.1-0.1,0.1c-0.1,0.3-0.1,0.6-0.2,1c0,0.5-0.2,1-0.1,1.5c0.1,0.2-0.1,0.5-0.1,0.8c0,0.2-0.1,0.3,0,0.5
		c0.3,1.4,0.1,2.8,0.1,4.2c0,0.9,0,1.8,0,2.7c-0.1,2.6-0.1,5.2-0.1,7.8c0,0.5,0.1,0.9,0.4,1.5c0-4.7,0.1-9.4,0.1-14
		c0.2,1.1,0.3,2.2,0.3,3.3c0,1.3,0,2.6-0.1,4c0,0.7,0,1.3-0.1,2c0,0.6-0.1,1.1,0,1.6c0.1,0.4,0.3,0.7,0.1,1.1
		c-0.2,0.4,0.2,0.7,0.2,1.1c-0.1,0-0.3,0.1-0.4,0.1c-0.1,0.5,0.2,1,0.3,1.4C42.9,64.5,43,64.4,43.1,64.4c0.1,0.2,0,0.6,0.4,0.5
		c0-0.3,0-0.3-0.2-0.4C43.2,64.5,43.1,64.5,43.1,64.4z M25.1,46.7c0,0.3,0,0.6,0,0.8c0,0.9-0.1,1.9,0,2.8c0.1,1.7,0.3,3.4,0.4,5.1
		c0.1,2.2,0.3,4.3,0.6,6.5c0.1,0.7,0.1,1.4,0.1,2.1c0,0.8,0.1,1,0.9,1.1c0.3,0.1,0.5,0.1,0.6,0.4c0.1,0.2,0.3,0.4,0.5,0.4
		c0.5,0,0.9,0.1,1.2,0.4c0,0,0.1,0,0.2,0c0.4,0,1.1-0.7,1.2-1.1c0.4-1.5,0.2-2.9,0.1-4.4c-0.1-1.8-0.3-3.5-0.5-5.3
		c-0.1-0.9-0.1-1.7-0.2-2.6c-0.2-2.2-0.5-4.4-0.8-6.6c-0.1-1-0.3-2-1-2.7c-0.1-0.5-0.2-0.8-0.2-1.1c0.1-0.5-0.3-0.7-0.6-0.9
		c-1-0.5-2.1-0.4-3.1-0.4c-2.2,0-4.5,0.1-6.7,0.1c-3.2,0.1-6.4-0.1-9.6,0.4c-0.5,0.1-1.1,0.3-1.5,0.6c-0.3,0.1-0.5,0.4-0.6,0.8
		c-0.1,0.6-0.3,1.1-0.5,1.7c-0.2,0.6-0.2,0.7,0.4,0.9c0.3,0.1,0.7,0.2,1.2,0.4c-0.4,0.1-0.6,0.2-0.8,0.3C7,46.7,7.4,46.9,7.8,47
		c0.1,0,0.2,0.1,0.3,0c1.3-0.1,2.6,0.2,4,0c0.1,0,0.2,0,0.3,0c2.1,0,4.1-0.1,6.2-0.1c1.7,0,3.5-0.1,5.2-0.2
		C24.3,46.8,24.6,46.7,25.1,46.7z M12,11.3c-0.1,0.1-0.1,0.1-0.2,0.2c0.2,0.2,0.5,0.4,0.7,0.6C12.4,11.8,12.2,11.6,12,11.3z
		 M44.7,8.6C44.7,8.6,44.7,8.6,44.7,8.6c0,0.3,0,0.5,0,0.8c0,0,0,0,0,0C44.7,9.1,44.7,8.9,44.7,8.6z M9.9,32.2
		C9.9,32.2,9.9,32.1,9.9,32.2c-0.2-0.1-0.4-0.1-0.7-0.1c0,0,0,0.1,0,0.1C9.4,32.2,9.7,32.2,9.9,32.2z M42.4,65.3c0,0,0.1,0,0.1,0
		c-0.1-0.1-0.1-0.3-0.2-0.4c0,0-0.1,0-0.1,0C42.3,65,42.3,65.1,42.4,65.3z M45,9.1c0,0,0.1,0,0.1,0c0-0.1,0-0.3,0-0.4c0,0,0,0-0.1,0
		C45,8.9,45,9,45,9.1z M44.2,7.1C44.2,7.1,44.3,7.1,44.2,7.1c0.1-0.1,0.1-0.2,0.1-0.3c0,0,0,0-0.1,0C44.2,6.8,44.2,7,44.2,7.1z"/>
	<path class="st0" d="M204.2,56.3c0-5.4,0-10.9,0-16.4c2.1,0,4.1,0,6.1,0c0.2,0.5,0.2,29.7,0,30.5c-2.2,0-4.5,0-6.8,0
		c-2.3-6.2-4.6-12.4-6.9-18.6c-0.1,0-0.1,0-0.1,0c0,0,0,0,0,0.1c0,0,0,0.1,0,0.1c0,0,0,0,0,0.1c0,0.1,0,0.1,0,0.2
		c0,5.9,0,11.9,0,17.8c0,0,0,0.1,0,0.1c0,0,0,0,0,0.1c0,0,0,0,0,0.1c-0.5,0.2-5.5,0.2-6.1,0c0-10.1,0-20.3,0-30.4c2.6,0,5.2,0,7.8,0
		c2,5.5,4,10.9,6,16.4C204.1,56.4,204.2,56.4,204.2,56.3z"/>
	<path class="st0" d="M82.5,40c0.3,0,0.5,0,0.7,0c3,0,6,0,9,0c1.5,0,2.9,0.2,4.3,0.7c2.7,1,4.1,2.9,4.4,5.8c0.1,1,0.1,2.1,0,3.1
		c-0.3,2.4-1.6,3.9-3.8,4.8c-0.2,0.1-0.4,0.2-0.6,0.3c0,0,0,0-0.1,0.1c0.3,0.1,0.5,0.1,0.7,0.2c1.6,0.5,2.9,1.3,3.8,2.7
		c0.5,0.9,0.9,1.9,0.9,2.9c0,1.2,0.1,2.4-0.1,3.6c-0.4,3-2,4.9-4.8,5.8c-1.3,0.4-2.7,0.6-4.1,0.6c-3.2,0-6.4,0-9.6,0
		c-0.2,0-0.4,0-0.6,0C82.5,60.3,82.5,50.1,82.5,40z M89.5,65.6c1,0,1.8,0,2.7-0.1c1.3-0.2,2.1-0.9,2.4-2.2c0.3-1.4,0.2-2.8,0-4.2
		c0-0.2-0.1-0.3-0.1-0.5c-0.2-0.7-0.7-1.2-1.4-1.4c-1.2-0.4-2.4-0.3-3.6-0.2C89.5,59.8,89.5,62.6,89.5,65.6z M89.5,52.2
		c0.9,0,1.8,0.1,2.6,0c1-0.1,1.8-0.7,2-1.8c0.3-1.3,0.3-2.5,0-3.8C94,46,93.6,45.5,93,45.2c-0.7-0.3-2.7-0.4-3.5-0.2
		C89.5,47.4,89.5,49.8,89.5,52.2z"/>
	<path class="st0" d="M96.5,19c0.3,0.1,0.6,0.2,0.9,0.3c2.6,0.9,4.1,2.7,4.4,5.4c0.2,1.5,0.1,3-0.2,4.5c-0.5,2.4-1.9,4-4.2,4.9
		c-1.3,0.5-2.7,0.8-4.1,0.8c-1.9,0-3.7,0-5.6,0c-1.4,0-2.9,0-4.3,0c-0.3,0-0.5,0-0.8,0c0-10.2,0-20.3,0-30.5c0.2,0,0.4-0.1,0.6-0.1
		c3.2,0,6.3,0,9.5,0c1.4,0,2.8,0.2,4.2,0.8c2.6,1.1,3.9,3,4.1,5.8c0.1,1,0,2.1-0.1,3.1c-0.2,2-1.3,3.3-3.1,4.2
		c-0.4,0.2-0.9,0.4-1.3,0.6C96.5,18.9,96.5,19,96.5,19z M89.5,21.2c-0.2,1.3-0.1,8.1,0.1,8.7c0.9,0,1.8,0,2.7-0.2
		c1.2-0.2,1.9-0.9,2.2-2.1c0.3-1.4,0.3-2.9,0-4.3c-0.2-1.2-0.9-1.9-2.1-2C91.5,21.3,90.5,21.3,89.5,21.2z M89.5,9.2c0,2.6,0,5,0,7.4
		c1,0,2,0.1,2.9-0.1c0.9-0.2,1.5-0.8,1.7-1.7c0.3-1.2,0.3-2.5,0-3.7c-0.2-1-0.8-1.6-1.8-1.7C91.4,9.3,90.5,9.3,89.5,9.2z"/>
	<path class="st0" d="M124.9,70.4c-2.5,0-4.9,0-7.4,0c-1.3-4-2.6-8.1-4-12.2c-0.5,0-1,0-1.5,0c0,4.1,0,8.1,0,12.1
		c-0.5,0.2-5.9,0.2-6.9,0.1c-0.1-0.5-0.2-29.7,0-30.5c0.2,0,0.4,0,0.6,0c2.9,0,5.9,0,8.8,0c1.4,0,2.8,0.2,4.1,0.5
		c3.1,0.9,4.9,2.9,5.2,6.2c0.2,1.9,0.2,3.9-0.1,5.8c-0.3,1.9-1.4,3.3-3.1,4.2c-0.1,0.1-0.2,0.1-0.3,0.2c0,0,0,0-0.1,0.1
		C121.7,61.4,123.3,65.9,124.9,70.4z M112,53.5c1,0.1,2,0.1,2.9-0.1c1.1-0.2,1.8-0.9,1.9-2c0.1-1.2,0.2-2.5,0.1-3.7
		c-0.1-1.4-0.8-2.1-2.2-2.2c-0.9-0.1-1.8,0-2.7,0C112,48.1,112,50.8,112,53.5z"/>
	<path class="st0" d="M162.4,64.5c-0.3,2-0.7,4-1,6c-2.2,0-4.3,0-6.6,0c2-10.2,4-20.3,6-30.5c3.3,0,6.6,0,9.9,0
		c2,10.1,4,20.3,6,30.5c-2.5,0-4.9,0-7.3,0c-0.3-2-0.7-3.9-1-5.9C167.9,64.4,163.6,64.4,162.4,64.5z M163.2,59.4
		c1.1,0.2,3.8,0.1,4.4-0.1c-0.7-4.2-1.4-8.4-2.1-12.6c-0.1,0-0.1,0-0.2,0C164.6,50.9,163.9,55.1,163.2,59.4z"/>
	<path class="st0" d="M141.9,12.6c-2.2,0-4.4,0-6.6,0c-0.1-0.4-0.1-0.8-0.2-1.2c-0.3-1.6-1.3-2.3-2.9-2c-0.7,0.1-1.2,0.5-1.4,1.3
		c-0.4,1.4-0.3,3.2,1.3,4.2c0.8,0.5,1.7,1,2.6,1.4c1.2,0.6,2.4,1.2,3.5,1.8c2.7,1.6,4,4.1,4.1,7.2c0.1,1.3,0,2.6-0.3,3.8
		c-0.7,3.1-2.6,5-5.6,5.8c-2.5,0.7-4.9,0.6-7.4,0c-3.2-0.9-5-3.1-5.6-6.3c-0.1-0.8-0.2-1.7-0.3-2.5c0.5-0.2,5.8-0.2,6.8-0.1
		c0,0.1,0.1,0.3,0.1,0.4c0.1,0.5,0.1,1,0.2,1.5c0.3,1.5,1.2,2.2,2.7,2.1c1.4-0.1,2.1-0.7,2.3-2.1c0.1-0.6,0.1-1.3,0-1.9
		c-0.1-0.9-0.6-1.7-1.4-2.2c-1-0.6-2-1.1-3.1-1.6c-1.4-0.7-2.7-1.4-3.9-2.4c-1.6-1.3-2.6-3-3-5c-0.3-1.6-0.3-3.2,0-4.8
		c0.6-2.8,2.2-4.6,4.9-5.5c2.7-0.9,5.4-0.9,8,0c2.7,0.8,4.2,2.8,4.8,5.5C141.8,10.8,142,11.7,141.9,12.6z"/>
	<path class="st0" d="M112,16.4c2.2,0,4.5,0,6.6,0c0.2,0.5,0.2,4.2,0.1,5.2c-2.2,0-4.4,0-6.6,0c-0.2,0.6-0.2,7,0,7.8
		c3,0,5.9,0,8.9,0c0,1.9,0,3.7,0,5.4c-0.5,0.1-14.7,0.2-15.9,0.1c-0.2-0.5-0.2-28.7-0.1-30.4c0,0,0,0,0,0c0,0,0,0,0.1,0
		c0.2,0,0.4,0,0.6,0c4.9,0,9.7,0,14.6,0c0.1,0,0.1,0,0.2,0.1c0,1.8,0,3.5,0,5.4c-0.3,0-0.5,0.1-0.8,0.1c-2.3,0-4.6,0-6.9,0
		c-0.3,0-0.5,0-0.7,0C111.9,10.5,111.8,15.4,112,16.4z"/>
	<path class="st0" d="M181.9,23.7c0-1.3-0.1-2.6,0-3.8c0.1-2.4,1-4.5,3-6c1.1-0.8,2.3-1.3,3.6-1.5c2.2-0.4,4.4-0.3,6.5,0.6
		c2.7,1.2,4.1,3.3,4.5,6.1c0.1,0.6,0.1,1.3,0.1,1.9c0,2,0,4.1,0,6.1c0,1.4-0.3,2.7-0.9,4c-0.9,1.9-2.4,3.1-4.4,3.8
		c-2.4,0.8-4.9,0.8-7.3,0c-2.9-1-4.6-3.1-5-6.1C181.8,27,181.9,25.3,181.9,23.7C181.8,23.7,181.9,23.7,181.9,23.7z M193.2,23.8
		c0-1.2,0-2.5,0-3.7c0-0.6-0.1-1.1-0.2-1.6c-0.3-1-1-1.5-2.2-1.5c-1.1,0-1.9,0.5-2.2,1.5c-0.2,0.5-0.3,1.1-0.3,1.6
		c0,2.5,0,4.9,0,7.4c0,0.5,0.1,1.1,0.3,1.6c0.3,1,1,1.4,2,1.5c1.1,0,1.9-0.4,2.3-1.4c0.2-0.6,0.3-1.2,0.3-1.8
		C193.3,26.2,193.2,25,193.2,23.8z"/>
	<path class="st0" d="M156.5,34.9c-2.4,0-4.8,0-7.2,0c0-8.3,0-16.6,0-25c-1.9,0-3.7,0-5.6,0c0-1.9,0-3.6,0-5.5c6.1,0,12.2,0,18.3,0
		c0,1.8,0,3.6,0,5.5c-1.8,0-3.7,0-5.6,0c0,1.4,0,2.8,0,4.2c0,1.4,0,2.8,0,4.2c0,1.4,0,2.8,0,4.1c0,1.4,0,2.8,0,4.1
		c0,1.4,0,2.8,0,4.2C156.5,32.1,156.5,33.4,156.5,34.9z"/>
	<path class="st0" d="M142.9,70.4c0-8.3,0-16.5,0-24.9c-1.9,0-3.7,0-5.5,0c0-1.9,0-3.7,0-5.5c6.1,0,12.1,0,18.3,0
		c0.1,1.8,0,3.6,0,5.5c-1.9,0-3.7,0-5.6,0c0,2.1,0,4.2,0,6.3c0,2.1,0,4.1,0,6.2s0,4.1,0,6.2c0,2.1,0,4.1,0,6.2
		C149.5,70.5,143.7,70.6,142.9,70.4z"/>
	<path class="st0" d="M168.9,12.5c0.7,0,1.3,0,2,0c0-0.3,0-0.6,0-0.8c0-1,0-2.1,0.1-3.1c0.2-2.9,1.8-4.8,4.6-5.4
		c1.6-0.3,3.2-0.3,4.8,0c0.1,0,0.2,0.1,0.3,0.1c0,1.5,0,3.1,0,4.7c-0.2,0-0.4,0-0.6-0.1c-0.1,0-0.3,0-0.4-0.1
		c-1.7-0.1-2.4,0.5-2.4,2.2c0,0.8,0,1.5,0,2.4c1.1,0.1,2.2,0,3.4,0.1c0.1,1.5,0,2.9,0,4.5c-1.1,0.1-2.2,0-3.4,0
		c-0.1,0.8,0,1.5,0,2.2c0,0.7,0,1.5,0,2.2c0,0.7,0,1.4,0,2.2c0,0.7,0,1.5,0,2.2c0,0.7,0,1.5,0,2.2c0,0.7,0,1.5,0,2.2
		c0,0.7,0,1.4,0,2.2c0,0.7,0,1.5,0,2.3c-2.2,0-4.2,0-6.4,0c0-5.9,0-11.8,0-17.8c-0.7,0-1.4,0-2.1,0
		C168.9,15.5,168.9,14.1,168.9,12.5z"/>
	<path class="st0" d="M186.3,70.4c-2.4,0-4.7,0-7,0c0-10.2,0-20.3,0-30.5c2.4,0,4.7,0,7,0C186.3,50.1,186.3,60.3,186.3,70.4z"/>
	<path class="st0" d="M127.5,40c2.4,0,4.7,0,7,0c0,10.2,0,20.3,0,30.5c-2.3,0-4.7,0-7,0C127.5,60.3,127.5,50.1,127.5,40z"/>
	<path class="st0" d="M65.5,14.2c3.6,4.7,5.9,9.8,7,15.7c-0.3,0-0.6,0.1-0.8,0c-0.6-0.2-1.2-0.1-1.7-0.3c-0.4-0.1-0.9-0.4-1.4-0.2
		c-0.1,0-0.3,0-0.4-0.1c0-0.4-0.1-0.6-0.5-0.7c-0.2-0.1-0.5-0.1-0.8-0.1c-1.4-0.1-2.7-0.3-4.1-0.4c-1.1-0.1-2.3-0.1-3.4-0.2
		c-2.3-0.1-4.6-0.3-7-0.4c-1-0.1-2.1-0.1-3.3-0.2c0.5-0.4,0.8-0.7,1.1-0.9c1.3-1.1,2.6-2.3,4-3.4c1.1-0.9,2.3-1.8,3.5-2.7
		c2.2-1.5,4.3-3.2,6.3-4.9C64.5,15,65,14.6,65.5,14.2z"/>
	<path class="st0" d="M202.3,12.6c2.1,0,4.1,0,6.2,0c0,1,0,2.1,0,3.1c0,0,0.1,0,0.1,0c0.1-0.2,0.3-0.5,0.4-0.7
		c1-1.8,2.6-2.6,4.6-2.6c0.1,0,0.2,0,0.3,0c0,2.1,0,4.2,0,6.3c-0.3,0-0.6,0.1-1,0.1c-0.6,0.1-1.2,0.1-1.7,0.2
		c-1.9,0.4-2.7,1.5-2.7,3.4c0,3,0,5.9,0,8.9c0,0.9,0,1.9,0,2.8c0,0.2,0,0.5,0,0.7c-2.1,0-4.2,0-6.2,0
		C202.2,34.3,202.1,13.2,202.3,12.6z"/>
	<path class="st0" d="M72.5,29.9c0.1,0.5,0.2,0.9,0.2,1.3c-0.8,0-1.5,0.2-2.1-0.3c0.2,0,0.4-0.1,0.6-0.2c-1-0.4-2,0.1-3-0.2
		c0.1,0,0.2-0.1,0.3-0.1c0.5,0,1,0,1.5,0c0.4,0,0.7-0.1,1-0.3C71.4,29.9,71.9,30,72.5,29.9z"/>
	<path class="st0" d="M46.2,52.1c0.2,2.3,0.3,4.9,0.3,7.4c0,0-0.1,0.1-0.3,0.2C46.2,57,46.2,54.4,46.2,52.1z"/>
	<path class="st0" d="M17.2,16.7c0.5,0.2,0.9,0.6,1.2,1.1C17.9,17.6,17.4,17.3,17.2,16.7C17.2,16.7,17.2,16.7,17.2,16.7z"/>
	<path class="st0" d="M69.8,31.6c0.5,0,1.1,0,1.6,0c0,0,0,0,0,0C70.9,31.6,70.4,31.6,69.8,31.6C69.8,31.6,69.8,31.6,69.8,31.6z"/>
	<path class="st0" d="M11.8,19.8c0.4-0.1,0.5,0.3,0.7,0.5C12.3,20.1,12.1,19.9,11.8,19.8C11.9,19.8,11.8,19.8,11.8,19.8z"/>
	<path class="st0" d="M20,19.5c-0.2-0.2-0.3-0.3-0.5-0.5c0,0,0.1-0.1,0.1-0.1C19.7,19.1,19.9,19.3,20,19.5C20,19.5,20,19.5,20,19.5z
		"/>
	<path class="st0" d="M12.3,13.5c0.1,0.1,0.2,0.1,0.3,0.2c0,0,0,0.1-0.1,0.1C12.4,13.7,12.3,13.6,12.3,13.5
		C12.2,13.5,12.2,13.5,12.3,13.5z"/>
</g>
</svg>
